<svg width="60" height="61" viewBox="0 0 60 61" fill="none" xmlns="http://www.w3.org/2000/svg">
<g clip-path="url(#clip0_109_196)">
<path d="M59.0625 1.11782C59.7991 1.65353 60.1004 2.36782 59.9665 3.26067L51.3951 54.6892C51.2835 55.3366 50.9263 55.8388 50.3237 56.1959C50.0112 56.3745 49.6652 56.4638 49.2857 56.4638C49.0402 56.4638 48.7723 56.408 48.4821 56.2964L30.837 49.0977L20.8594 60.0464C20.4576 60.5151 19.933 60.7495 19.2857 60.7495C18.9732 60.7495 18.7165 60.7049 18.5156 60.6156C18.0915 60.4593 17.7567 60.1971 17.5112 59.8288C17.2656 59.4604 17.1429 59.0531 17.1429 58.6067V43.4727L1.33928 37.0107C0.513388 36.6982 0.0669597 36.0843 -4.58956e-06 35.1692C-0.0669689 34.2986 0.290174 33.6401 1.07142 33.1937L56.7857 1.05085C57.567 0.582104 58.3259 0.604424 59.0625 1.11782ZM47.6116 51.3075L55.0112 7.01067L6.99776 34.7004L18.2478 39.2875L47.1428 17.8924L31.1384 44.5776L47.6116 51.3075Z" fill="white"/>
</g>
<defs>
<clipPath id="clip0_109_196">
<rect width="60" height="60" fill="white" transform="matrix(1 0 0 -1 0 60.7495)"/>
</clipPath>
</defs>
</svg>
