<svg width="60" height="61" viewBox="0 0 60 61" fill="none" xmlns="http://www.w3.org/2000/svg">
<path d="M30.7701 29.3768C30.7701 29.3768 30.8203 29.3266 30.9208 29.2261C31.0212 29.1257 31.0714 28.9192 31.0714 28.6067C31.0714 28.2942 30.971 28.0375 30.7701 27.8366C30.5692 27.6357 30.3125 27.5353 30 27.5353C28.5268 27.5353 27.2656 28.0599 26.2165 29.109C25.1674 30.1581 24.6429 31.4192 24.6429 32.8924C24.6429 33.2049 24.7433 33.4616 24.9442 33.6625C25.1451 33.8634 25.4018 33.9639 25.7143 33.9639C26.0268 33.9639 26.2835 33.8634 26.4844 33.6625C26.6853 33.4616 26.7857 33.2049 26.7857 32.8924C26.7857 31.9996 27.0982 31.2407 27.7232 30.6157C28.3482 29.9907 29.1071 29.6782 30 29.6782C30.3125 29.6782 30.5692 29.5777 30.7701 29.3768ZM36.0603 26.8991C36.0603 26.8991 36.4788 27.3177 37.3158 28.1547C38.1529 28.9918 38.5714 30.5933 38.5714 32.9594C38.5714 35.3255 37.7344 37.3456 36.0603 39.0197C34.3862 40.6938 32.3661 41.5308 30 41.5308C27.6339 41.5308 25.6138 40.6938 23.9397 39.0197C22.2656 37.3456 21.4286 35.3255 21.4286 32.9594C21.4286 30.5933 22.2656 28.5732 23.9397 26.8991C25.6138 25.225 27.6339 24.388 30 24.388C32.3661 24.388 34.3862 25.225 36.0603 26.8991ZM4.28571 52.1782H55.7143V47.8924H4.28571V52.1782ZM39.0904 42.0498C39.0904 42.0498 39.7182 41.422 40.9738 40.1664C42.2294 38.9109 42.8571 36.5085 42.8571 32.9594C42.8571 29.4103 41.6016 26.3802 39.0904 23.869C36.5792 21.3578 33.5491 20.1023 30 20.1023C26.4509 20.1023 23.4208 21.3578 20.9096 23.869C18.3984 26.3802 17.1429 29.4103 17.1429 32.9594C17.1429 36.5085 18.3984 39.5386 20.9096 42.0498C23.4208 44.561 26.4509 45.8165 30 45.8165C33.5491 45.8165 36.5792 44.561 39.0904 42.0498ZM8.57143 11.4639H21.4286V7.17815H8.57143V11.4639ZM4.28571 17.8924H55.7143V13.9415V9.32101H27.9911L25.8482 13.6067H4.28571V17.8924ZM60 9.32101V52.1782C60 53.3612 59.5815 54.3712 58.7444 55.2083C57.9074 56.0453 56.8973 56.4639 55.7143 56.4639H4.28571C3.10268 56.4639 2.09263 56.0453 1.25558 55.2083C0.418527 54.3712 0 53.3612 0 52.1782V9.32101C0 8.13798 0.418527 7.12793 1.25558 6.29088C2.09263 5.45382 3.10268 5.0353 4.28571 5.0353H55.7143C56.8973 5.0353 57.9074 5.45382 58.7444 6.29088C59.5815 7.12793 60 8.13798 60 9.32101Z" fill="white"/>
</svg>
