<svg width="60" height="61" viewBox="0 0 60 61" fill="none" xmlns="http://www.w3.org/2000/svg">
<path d="M55.7143 20.7049C55.7143 18.8969 55.4743 17.3009 54.9944 15.917C54.5145 14.5331 53.9007 13.4337 53.1529 12.619C52.4051 11.8043 51.4955 11.1402 50.4241 10.6268C49.3527 10.1134 48.3036 9.76744 47.2768 9.58887C46.25 9.4103 45.1562 9.32101 43.9955 9.32101C42.8348 9.32101 41.5848 9.60561 40.2455 10.1748C38.9062 10.744 37.673 11.4583 36.5458 12.3177C35.4185 13.177 34.4531 13.9806 33.6496 14.7284C32.846 15.4761 32.1763 16.1625 31.6406 16.7875C31.2388 17.2786 30.692 17.5241 30 17.5241C29.308 17.5241 28.7612 17.2786 28.3594 16.7875C27.8237 16.1625 27.154 15.4761 26.3504 14.7284C25.5469 13.9806 24.5815 13.177 23.4542 12.3177C22.327 11.4583 21.0938 10.744 19.7545 10.1748C18.4152 9.60561 17.1652 9.32101 16.0045 9.32101C14.8437 9.32101 13.75 9.4103 12.7232 9.58887C11.6964 9.76744 10.6473 10.1134 9.57589 10.6268C8.50446 11.1402 7.59487 11.8043 6.8471 12.619C6.09933 13.4337 5.48549 14.5331 5.00558 15.917C4.52567 17.3009 4.28571 18.8969 4.28571 20.7049C4.28571 24.4549 6.37277 28.417 10.5469 32.5911L30 51.3411L49.4196 32.6246C53.6161 28.4282 55.7143 24.4549 55.7143 20.7049ZM60 20.7049C60 25.638 57.4442 30.6603 52.3326 35.7719L31.4732 55.8612C31.0714 56.263 30.5804 56.4639 30 56.4639C29.4196 56.4639 28.9286 56.263 28.5268 55.8612L7.63393 35.7049C7.41071 35.5264 7.10379 35.2362 6.71317 34.8344C6.32254 34.4326 5.70312 33.7016 4.85491 32.6413C4.0067 31.5811 3.24777 30.4929 2.57812 29.3768C1.90848 28.2607 1.31138 26.9103 0.78683 25.3255C0.262277 23.7407 0 22.2005 0 20.7049C0 15.7942 1.41741 11.9549 4.25223 9.18708C7.08705 6.41923 11.0045 5.0353 16.0045 5.0353C17.3884 5.0353 18.8002 5.27525 20.24 5.75517C21.6797 6.23507 23.019 6.8824 24.2578 7.69713C25.4967 8.51186 26.5625 9.27637 27.4554 9.99065C28.3482 10.7049 29.1964 11.4639 30 12.2674C30.8036 11.4639 31.6518 10.7049 32.5446 9.99065C33.4375 9.27637 34.5033 8.51186 35.7422 7.69713C36.981 6.8824 38.3203 6.23507 39.76 5.75517C41.1998 5.27525 42.6116 5.0353 43.9955 5.0353C48.9955 5.0353 52.9129 6.41923 55.7478 9.18708C58.5826 11.9549 60 15.7942 60 20.7049Z" fill="white"/>
</svg>
